<svg xmlns="http://www.w3.org/2000/svg" viewBox="0 -256 1792 1792" width="24" height="24">
   <path d="m1511 480q0-5-1-7Q1446 205 1242 38.5 1038-128 764-128 618-128 481.5-73 345-18 238 84L109-45Q90-64 64-64 38-64 19-45 0-26 0 0v448q0 26 19 45 19 19 45 19h448q26 0 45-19 19-19 19-45 0-26-19-45L420 266q71-66 161-102 90-36 187-36 134 0 250 65 116 65 186 179 11 17 53 117 8 23 30 23h192q13 0 22.5-9.5 9.5-9.5 9.5-22.5zm25 800V832q0-26-19-45-19-19-45-19h-448q-26 0-45 19-19 19-19 45 0 26 19 45l138 138Q969 1152 768 1152 634 1152 518 1087 402 1022 332 908 321 891 279 791 271 768 249 768H50Q37 768 27.5 777.5 18 787 18 800v7q65 268 270 434.5 205 166.5 480 166.5 146 0 284-55.5 138-55.5 245-156.5l130 129q19 19 45 19 26 0 45-19 19-19 19-45z" fill="currentColor"/>
</svg>
